<svg width="1200" height="700" viewBox="0 0 1200 700" fill="none" xmlns="http://www.w3.org/2000/svg">
  <defs>
    <linearGradient id="bg" x1="120" y1="20" x2="1080" y2="680" gradientUnits="userSpaceOnUse">
      <stop stop-color="#1E1B4B"/>
      <stop offset="1" stop-color="#111827"/>
    </linearGradient>
  </defs>
  <rect width="1200" height="700" rx="24" fill="url(#bg)"/>
  <rect x="90" y="90" width="1020" height="520" rx="20" fill="#0C1333" stroke="#A78BFA" stroke-opacity="0.45"/>
  <rect x="140" y="140" width="220" height="120" rx="12" fill="#1E3A8A" fill-opacity="0.45" stroke="#93C5FD"/>
  <rect x="490" y="140" width="220" height="120" rx="12" fill="#312E81" fill-opacity="0.6" stroke="#C4B5FD"/>
  <rect x="840" y="140" width="220" height="120" rx="12" fill="#0E7490" fill-opacity="0.55" stroke="#67E8F9"/>
  <rect x="140" y="360" width="220" height="120" rx="12" fill="#312E81" fill-opacity="0.6" stroke="#C4B5FD"/>
  <rect x="490" y="360" width="220" height="120" rx="12" fill="#0E7490" fill-opacity="0.55" stroke="#67E8F9"/>
  <rect x="840" y="360" width="220" height="120" rx="12" fill="#1E3A8A" fill-opacity="0.45" stroke="#93C5FD"/>
  <path d="M360 200H490M710 200H840M250 260V360M600 260V360M950 260V360M360 420H490M710 420H840" stroke="#E0E7FF" stroke-opacity="0.8" stroke-width="5"/>
  <text x="90" y="62" fill="#C4B5FD" font-family="Inter, Arial, sans-serif" font-size="34" font-weight="700">Microservices API System</text>
</svg>
